<?xml version="1.0" encoding="UTF-8"?>
<svg xmlns="http://www.w3.org/2000/svg" viewBox="0 0 1280 960">
  <defs>
    <!-- 배경 그라데이션 -->
    <linearGradient id="bgSoft" x1="0" y1="0" x2="0" y2="1">
      <stop offset="0%" stop-color="#f0fdf4"/><stop offset="100%" stop-color="#dcfce7"/>
    </linearGradient>
    <!-- 안전조끼 (주황) -->
    <linearGradient id="vestGrad" x1="0" y1="0" x2="0" y2="1">
      <stop offset="0%" stop-color="#fb923c"/><stop offset="100%" stop-color="#c2410c"/>
    </linearGradient>
    <!-- 흰색 안전모 -->
    <linearGradient id="helmetGrad" x1="0" y1="0" x2="0" y2="1">
      <stop offset="0%" stop-color="#ffffff"/><stop offset="100%" stop-color="#cbd5e1"/>
    </linearGradient>
    <!-- 노란 안전모 -->
    <linearGradient id="helmetYellow" x1="0" y1="0" x2="0" y2="1">
      <stop offset="0%" stop-color="#fde047"/><stop offset="100%" stop-color="#a16207"/>
    </linearGradient>
    <!-- 청바지/회색 바지 -->
    <linearGradient id="pantsGrad" x1="0" y1="0" x2="0" y2="1">
      <stop offset="0%" stop-color="#475569"/><stop offset="100%" stop-color="#1e293b"/>
    </linearGradient>
    <!-- 피부톤 -->
    <radialGradient id="skinGrad" cx="0.4" cy="0.4" r="0.7">
      <stop offset="0%" stop-color="#fed7aa"/><stop offset="100%" stop-color="#f59e0b"/>
    </radialGradient>
    <!-- 노란 안전대 -->
    <linearGradient id="harnessGrad" x1="0" y1="0" x2="0" y2="1">
      <stop offset="0%" stop-color="#fbbf24"/><stop offset="100%" stop-color="#a16207"/>
    </linearGradient>
    <!-- 부드러운 그림자 -->
    <filter id="softShadow" x="-20%" y="-20%" width="140%" height="140%">
      <feGaussianBlur in="SourceAlpha" stdDeviation="3"/>
      <feOffset dx="0" dy="3"/>
      <feComponentTransfer><feFuncA type="linear" slope="0.25"/></feComponentTransfer>
      <feMerge><feMergeNode/><feMergeNode in="SourceGraphic"/></feMerge>
    </filter>
    <marker id="arrowR" markerWidth="14" markerHeight="14" refX="11" refY="7" orient="auto">
      <path d="M0,0 L12,7 L0,14 Z" fill="#dc2626"/>
    </marker>
  </defs>

  <rect width="1280" height="960" fill="#fef9c3"/>
  <rect x="0" y="660" width="1280" height="300" fill="#a8a29e"/>
  
  <!-- 조속기/모터 (큼지막하게) -->
  <g transform="translate(380, 360)" filter="url(#softShadow)">
    <ellipse cx="240" cy="380" rx="280" ry="20" fill="#000" opacity="0.3"/>
    <!-- 베이스 -->
    <rect x="0" y="300" width="480" height="80" fill="#1e293b"/>
    <rect x="-20" y="370" width="520" height="20" fill="#0f172a"/>
    <!-- 모터 본체 -->
    <rect x="60" y="120" width="200" height="180" rx="10" fill="#64748b" stroke="#1e293b" stroke-width="3"/>
    <rect x="60" y="120" width="200" height="40" rx="10" fill="#94a3b8"/>
    <g fill="#0f172a">
      <rect x="80" y="180" width="8" height="100"/>
      <rect x="100" y="180" width="8" height="100"/>
      <rect x="120" y="180" width="8" height="100"/>
      <rect x="140" y="180" width="8" height="100"/>
      <rect x="160" y="180" width="8" height="100"/>
      <rect x="180" y="180" width="8" height="100"/>
      <rect x="200" y="180" width="8" height="100"/>
      <rect x="220" y="180" width="8" height="100"/>
    </g>
    <text x="160" y="148" text-anchor="middle" font-size="14" font-weight="900" fill="#fbbf24" letter-spacing="2" style="font-family:sans-serif">MOTOR</text>
    <!-- 방호덮개 (커버) -->
    <path d="M260,180 Q260,140 320,140 L380,140 Q440,140 440,180 L440,290 L260,290 Z" fill="url(#helmetYellow)" stroke="#7c2d12" stroke-width="5"/>
    <text x="350" y="240" text-anchor="middle" font-size="22" font-weight="900" fill="#7c2d12" style="font-family:sans-serif">GUARD</text>
  </g>
  
  <!-- 안전 경고표지 (제거 금지) -->
  <g transform="translate(970, 280)" filter="url(#softShadow)">
    <rect x="-10" y="180" width="20" height="120" fill="#525252"/>
    <ellipse cx="0" cy="305" rx="35" ry="6" fill="#525252"/>
    <rect x="-90" y="-30" width="180" height="220" rx="10" fill="white" stroke="#dc2626" stroke-width="6"/>
    <rect x="-90" y="-30" width="180" height="50" rx="10" fill="#dc2626"/>
    <text x="0" y="3" text-anchor="middle" font-size="22" font-weight="900" fill="white" style="font-family:sans-serif">⚠ WARNING</text>
    <g transform="translate(0, 90)">
      <circle cx="0" cy="0" r="55" fill="none" stroke="#dc2626" stroke-width="6"/>
      <line x1="-40" y1="-40" x2="40" y2="40" stroke="#dc2626" stroke-width="6"/>
      <!-- 손가락 -->
      <path d="M-30,-15 L-15,-25 L0,-25 L5,-10 L0,5 L-20,12 L-35,5 Z" fill="#fde68a" stroke="#92400e" stroke-width="2"/>
      <circle cx="20" cy="0" r="18" fill="#525252"/>
      <g fill="#525252">
        <rect x="17" y="-25" width="6" height="10"/>
        <rect x="17" y="15" width="6" height="10"/>
      </g>
    </g>
    <text x="0" y="170" text-anchor="middle" font-size="15" font-weight="900" fill="#dc2626" style="font-family:sans-serif">방호덮개 제거 금지</text>
  </g>
  
  <!-- 작업자 (점검 중) -->

    <g transform="translate(180, 480)" filter="url(#softShadow)">
      <!-- 그림자 -->
      <ellipse cx="0" cy="240" rx="58" ry="9" fill="#000" opacity="0.2"/>
      <!-- 다리 -->
      <path d="M-22,150 Q-25,200 -25,238 L-15,240 L-10,160 Z" fill="url(#pantsGrad)" stroke="#0f172a" stroke-width="1.5"/>
      <path d="M10,160 L15,240 L25,238 Q25,200 22,150 Z" fill="url(#pantsGrad)" stroke="#0f172a" stroke-width="1.5"/>
      <!-- 안전화 -->
      <ellipse cx="-20" cy="242" rx="20" ry="6" fill="#0f172a"/>
      <ellipse cx="20" cy="242" rx="20" ry="6" fill="#0f172a"/>
      <rect x="-38" y="237" width="36" height="3" fill="#fbbf24"/>
      <rect x="2" y="237" width="36" height="3" fill="#fbbf24"/>
      <!-- 몸통 (안전조끼) -->
      <path d="M-38,70 Q-40,95 -40,150 L-22,155 L-22,80 Z" fill="url(#vestGrad)" stroke="#9a3412" stroke-width="2"/>
      <path d="M22,80 L22,155 L40,150 Q40,95 38,70 Z" fill="url(#vestGrad)" stroke="#9a3412" stroke-width="2"/>
      <path d="M-22,80 L22,80 L22,160 L-22,160 Z" fill="url(#vestGrad)" stroke="#9a3412" stroke-width="2"/>
      <!-- 형광 줄무늬 -->
      <rect x="-40" y="110" width="80" height="5" fill="#fef3c7"/>
      <rect x="-40" y="140" width="80" height="5" fill="#fef3c7"/>
      <!-- 안전대 D링 + 끈 -->
      <line x1="-18" y1="80" x2="-18" y2="150" stroke="url(#harnessGrad)" stroke-width="4"/>
      <line x1="18" y1="80" x2="18" y2="150" stroke="url(#harnessGrad)" stroke-width="4"/>
      <line x1="-18" y1="115" x2="18" y2="115" stroke="url(#harnessGrad)" stroke-width="4"/>
      <circle cx="0" cy="118" r="7" fill="#fcd34d" stroke="#92400e" stroke-width="2"/>
      <!-- 팔 -->
      <path d="M-38,75 Q-50,100 -52,140 L-42,143 L-30,82 Z" fill="url(#vestGrad)" stroke="#9a3412" stroke-width="2"/>
      <path d="M30,82 L42,143 L52,140 Q50,100 38,75 Z" fill="url(#vestGrad)" stroke="#9a3412" stroke-width="2"/>
      <!-- 손 -->
      <circle cx="-47" cy="143" r="9" fill="url(#skinGrad)" stroke="#9a3412" stroke-width="1.5"/>
      <circle cx="47" cy="143" r="9" fill="url(#skinGrad)" stroke="#9a3412" stroke-width="1.5"/>
      <!-- 머리 -->
      <ellipse cx="0" cy="32" rx="26" ry="29" fill="url(#skinGrad)" stroke="#9a3412" stroke-width="2"/>
      <!-- 얼굴 디테일 -->
      <ellipse cx="-9" cy="33" rx="2.5" ry="3" fill="#1e293b"/>
      <ellipse cx="9" cy="33" rx="2.5" ry="3" fill="#1e293b"/>
      <path d="M-5,46 Q0,49 5,46" fill="none" stroke="#9a3412" stroke-width="2" stroke-linecap="round"/>
      <!-- 안전모 -->
      <path d="M-30,30 Q-30,-6 0,-12 Q30,-6 30,30 L30,34 L-30,34 Z" fill="url(#helmetYellow)" stroke="#1e293b" stroke-width="2"/>
      <ellipse cx="0" cy="6" rx="32" ry="6" fill="#94a3b8"/>
      <path d="M-30,34 L-34,40 L34,40 L30,34 Z" fill="#94a3b8" stroke="#1e293b" stroke-width="1.5"/>
      <!-- 턱끈 -->
      <path d="M-22,45 Q0,55 22,45" fill="none" stroke="#9a3412" stroke-width="1.5"/>
    </g>
  
  <g transform="translate(180, 320)" filter="url(#softShadow)">
    <rect x="-90" y="-32" width="180" height="64" rx="10" fill="#fde047" stroke="#1e293b" stroke-width="3"/>
    <text x="0" y="-5" text-anchor="middle" font-size="20" font-weight="900" fill="#1e293b" style="font-family:&apos;Pretendard&apos;,sans-serif">방호덮개</text>
    <text x="0" y="22" text-anchor="middle" font-size="20" font-weight="900" fill="#1e293b" style="font-family:&apos;Pretendard&apos;,sans-serif">설치 + 표지</text>
    <path d="M70,30 L320,350" stroke="#dc2626" stroke-width="4" fill="none" marker-end="url(#arrowR)"/>
  </g>
  
  <g transform="translate(640, 55)">
    <rect x="-200" y="-26" width="400" height="52" rx="26" fill="white" stroke="#5b47eb" stroke-width="3" filter="url(#softShadow)"/>
    <text x="0" y="7" text-anchor="middle" font-size="22" font-weight="700" fill="#5b47eb" style="font-family:&apos;Pretendard&apos;,sans-serif">✦ 방호덮개 + 제거 금지 표지</text>
  </g>
  <g transform="translate(20, 20)">
    <rect x="0" y="0" width="90" height="28" rx="14" fill="#5b47eb"/>
    <text x="45" y="20" text-anchor="middle" font-size="12" font-weight="700" fill="white" letter-spacing="1.5" style="font-family:sans-serif">AI ✦ SAFEG</text>
  </g>
</svg>