<?xml version="1.0" encoding="UTF-8"?>
<svg xmlns="http://www.w3.org/2000/svg" viewBox="0 0 1280 960" width="1280" height="960">

  <defs>
    <linearGradient id="bgSoft" x1="0" y1="0" x2="0" y2="1">
      <stop offset="0%" stop-color="#f0fdf4"/><stop offset="100%" stop-color="#dcfce7"/>
    </linearGradient>
    <linearGradient id="vestGrad" x1="0" y1="0" x2="0" y2="1">
      <stop offset="0%" stop-color="#fb923c"/><stop offset="100%" stop-color="#c2410c"/>
    </linearGradient>
    <linearGradient id="helmetYellow" x1="0" y1="0" x2="0" y2="1">
      <stop offset="0%" stop-color="#fde047"/><stop offset="100%" stop-color="#a16207"/>
    </linearGradient>
    <linearGradient id="pantsGrad" x1="0" y1="0" x2="0" y2="1">
      <stop offset="0%" stop-color="#475569"/><stop offset="100%" stop-color="#1e293b"/>
    </linearGradient>
    <radialGradient id="skinGrad" cx="0.4" cy="0.4" r="0.7">
      <stop offset="0%" stop-color="#fed7aa"/><stop offset="100%" stop-color="#f59e0b"/>
    </radialGradient>
    <filter id="softShadow" x="-20%" y="-20%" width="140%" height="140%">
      <feGaussianBlur in="SourceAlpha" stdDeviation="4"/>
      <feOffset dx="0" dy="4"/>
      <feComponentTransfer><feFuncA type="linear" slope="0.25"/></feComponentTransfer>
      <feMerge><feMergeNode/><feMergeNode in="SourceGraphic"/></feMerge>
    </filter>
    <marker id="arrowR" markerWidth="14" markerHeight="14" refX="11" refY="7" orient="auto">
      <path d="M0,0 L12,7 L0,14 Z" fill="#dc2626"/>
    </marker>
  </defs>


  <rect width="1280" height="960" fill="#fef9c3"/>
  <rect x="0" y="0" width="1280" height="650" fill="#e0e7ff" opacity="0.4"/>
  <g stroke="#64748b" stroke-width="6" fill="none" opacity="0.5">
    <line x1="0" y1="120" x2="1280" y2="120"/><line x1="0" y1="180" x2="1280" y2="180"/>
    <line x1="120" y1="0" x2="120" y2="650"/><line x1="1180" y1="0" x2="1180" y2="650"/>
  </g>
  <rect x="0" y="650" width="1280" height="310" fill="#94a3b8"/>
  <!-- 소방펌프 + 모터 + 방호덮개 -->
  <g transform="translate(360, 360)" filter="url(#softShadow)">
    <ellipse cx="280" cy="380" rx="320" ry="20" fill="#000" opacity="0.3"/>
    <rect x="-20" y="320" width="600" height="60" fill="#1e293b"/>
    <rect x="-40" y="370" width="640" height="20" fill="#0f172a"/>
    <g transform="translate(20, 100)">
      <rect x="0" y="80" width="180" height="180" rx="10" fill="#dc2626" stroke="#7f1d1d" stroke-width="3"/>
      <rect x="0" y="80" width="180" height="40" rx="10" fill="#ef4444"/>
      <circle cx="90" cy="180" r="50" fill="#1e293b" stroke="#7f1d1d" stroke-width="2"/>
      <circle cx="90" cy="180" r="35" fill="#475569" stroke="#fbbf24" stroke-width="2"/>
      <text x="90" y="60" text-anchor="middle" font-size="14" font-weight="900" fill="#7f1d1d" style="font-family:sans-serif">FIRE PUMP</text>
    </g>
    <g transform="translate(360, 130)">
      <rect x="0" y="80" width="200" height="170" rx="10" fill="#64748b" stroke="#1e293b" stroke-width="3"/>
      <rect x="0" y="80" width="200" height="35" rx="10" fill="#94a3b8"/>
      <text x="100" y="105" text-anchor="middle" font-size="14" font-weight="900" fill="#fbbf24" letter-spacing="2" style="font-family:sans-serif">MOTOR</text>
      <g fill="#0f172a"><rect x="20" y="135" width="6" height="100"/><rect x="40" y="135" width="6" height="100"/><rect x="60" y="135" width="6" height="100"/><rect x="80" y="135" width="6" height="100"/><rect x="100" y="135" width="6" height="100"/><rect x="120" y="135" width="6" height="100"/><rect x="140" y="135" width="6" height="100"/><rect x="160" y="135" width="6" height="100"/></g>
    </g>
    <!-- 방호덮개 -->
    <g transform="translate(200, 230)">
      <rect x="0" y="0" width="160" height="120" rx="8" fill="none" stroke="#10b981" stroke-width="6"/>
      <rect x="0" y="0" width="160" height="120" rx="8" fill="#10b981" opacity="0.1"/>
      <g stroke="#10b981" stroke-width="3" opacity="0.7" fill="none">
        <line x1="0" y1="30" x2="160" y2="30"/><line x1="0" y1="60" x2="160" y2="60"/><line x1="0" y1="90" x2="160" y2="90"/>
        <line x1="40" y1="0" x2="40" y2="120"/><line x1="80" y1="0" x2="80" y2="120"/><line x1="120" y1="0" x2="120" y2="120"/>
      </g>
      <circle cx="40" cy="60" r="22" fill="#475569" stroke="#1e293b" stroke-width="2"/><circle cx="40" cy="60" r="6" fill="#fbbf24"/>
      <circle cx="120" cy="60" r="22" fill="#475569" stroke="#1e293b" stroke-width="2"/><circle cx="120" cy="60" r="6" fill="#fbbf24"/>
      <path d="M40,38 L120,38 M40,82 L120,82" stroke="#1e293b" stroke-width="8"/>
      <rect x="40" y="-25" width="80" height="20" rx="10" fill="#10b981"/>
      <text x="80" y="-10" text-anchor="middle" font-size="11" font-weight="900" fill="white" letter-spacing="1" style="font-family:sans-serif">SAFETY GUARD</text>
    </g>
  </g>
  <!-- 작업자 -->
  <g transform="translate(960, 460)" filter="url(#softShadow)">
    <ellipse cx="0" cy="280" rx="60" ry="9" fill="#000" opacity="0.25"/>
    <path d="M-22,150 L-25,278 L-15,280 L-10,160 Z" fill="url(#pantsGrad)" stroke="#0f172a" stroke-width="1.5"/>
    <path d="M10,160 L15,280 L25,278 L22,150 Z" fill="url(#pantsGrad)" stroke="#0f172a" stroke-width="1.5"/>
    <ellipse cx="-20" cy="282" rx="20" ry="6" fill="#0f172a"/><ellipse cx="20" cy="282" rx="20" ry="6" fill="#0f172a"/>
    <path d="M-40,70 L40,70 L42,160 L-42,160 Z" fill="url(#vestGrad)" stroke="#9a3412" stroke-width="2"/>
    <rect x="-40" y="105" width="80" height="5" fill="#fef3c7"/><rect x="-40" y="135" width="80" height="5" fill="#fef3c7"/>
    <path d="M-40,75 Q-58,40 -70,0 L-58,-5 L-30,80 Z" fill="url(#vestGrad)" stroke="#9a3412" stroke-width="2"/>
    <path d="M40,75 Q50,100 48,140 L38,143 L28,80 Z" fill="url(#vestGrad)" stroke="#9a3412" stroke-width="2"/>
    <circle cx="-65" cy="0" r="10" fill="url(#skinGrad)" stroke="#9a3412" stroke-width="1.5"/>
    <circle cx="42" cy="143" r="9" fill="url(#skinGrad)" stroke="#9a3412" stroke-width="1.5"/>
    <ellipse cx="0" cy="32" rx="26" ry="29" fill="url(#skinGrad)" stroke="#9a3412" stroke-width="2"/>
    <ellipse cx="-9" cy="33" rx="2.5" ry="3" fill="#1e293b"/><ellipse cx="9" cy="33" rx="2.5" ry="3" fill="#1e293b"/>
    <path d="M-5,46 Q0,49 5,46" fill="none" stroke="#9a3412" stroke-width="2" stroke-linecap="round"/>
    <path d="M-30,30 Q-30,-6 0,-12 Q30,-6 30,30 L30,34 L-30,34 Z" fill="url(#helmetYellow)" stroke="#1e293b" stroke-width="2"/>
    <ellipse cx="0" cy="6" rx="32" ry="6" fill="#f59e0b"/>
    <path d="M-30,34 L-34,40 L34,40 L30,34 Z" fill="#92400e" stroke="#1e293b" stroke-width="1.5"/>
  </g>
  <!-- 라벨: 방호덮개 설치 -->
  <g transform="translate(440, 240)" filter="url(#softShadow)">
    <rect x="-110" y="-32" width="220" height="64" rx="10" fill="#fde047" stroke="#1e293b" stroke-width="3"/>
    <text x="0" y="-5" text-anchor="middle" font-size="20" font-weight="900" fill="#1e293b" style="font-family:&apos;Pretendard&apos;,sans-serif">구동부</text>
    <text x="0" y="22" text-anchor="middle" font-size="20" font-weight="900" fill="#1e293b" style="font-family:&apos;Pretendard&apos;,sans-serif">방호덮개 설치</text>
    <path d="M0,35 L120,180" stroke="#dc2626" stroke-width="4" fill="none" marker-end="url(#arrowR)"/>
  </g>
  <!-- 끼임 경고 표지 -->
  <g transform="translate(180, 460)" filter="url(#softShadow)">
    <rect x="-8" y="160" width="16" height="160" fill="#525252"/>
    <ellipse cx="0" cy="325" rx="30" ry="6" fill="#525252"/>
    <path d="M0,0 L100,160 L-100,160 Z" fill="#fde047" stroke="#dc2626" stroke-width="6" stroke-linejoin="round"/>
    <g transform="translate(0, 90)">
      <path d="M-30,-10 L-15,-20 L0,-20 L5,-5 L0,10 L-20,17 L-35,10 Z" fill="#fde68a" stroke="#7c2d12" stroke-width="2"/>
      <circle cx="25" cy="0" r="20" fill="#475569" stroke="#1e293b" stroke-width="2"/>
      <g fill="#475569"><rect x="22" y="-28" width="6" height="10"/><rect x="22" y="18" width="6" height="10"/><rect x="-3" y="-3" width="10" height="6"/><rect x="48" y="-3" width="10" height="6"/></g>
      <circle cx="25" cy="0" r="6" fill="#1e293b"/>
    </g>
    <text x="0" y="135" text-anchor="middle" font-size="16" font-weight="900" fill="#1e293b" style="font-family:&apos;Pretendard&apos;,sans-serif">⚠ 끼임 위험</text>
  </g>

  <!-- 상단 라벨 -->
  <g transform="translate(640, 55)">
    <rect x="-300" y="-26" width="600" height="52" rx="26" fill="white" stroke="#5b47eb" stroke-width="3" filter="url(#softShadow)"/>
    <text x="0" y="7" text-anchor="middle" font-size="20" font-weight="700" fill="#5b47eb" style="font-family:&apos;Pretendard&apos;,sans-serif">✦ 구동부 방호덮개 설치</text>
  </g>
  <!-- AI 마크 -->
  <g transform="translate(20, 20)">
    <rect x="0" y="0" width="90" height="28" rx="14" fill="#5b47eb"/>
    <text x="45" y="20" text-anchor="middle" font-size="12" font-weight="700" fill="white" letter-spacing="1.5" style="font-family:sans-serif">AI ✦ SAFEG</text>
  </g>
  <!-- 푸터 -->
  <g transform="translate(640, 920)">
    <rect x="-460" y="-22" width="920" height="40" rx="20" fill="rgba(0,0,0,0.55)"/>
    <text x="0" y="5" text-anchor="middle" font-size="13" font-weight="500" fill="white" style="font-family:&apos;Pretendard&apos;,sans-serif">SAFEG-Lexia · PAIR-0003 · 강릉농협 · 2025 · 📋 안전보건규칙 제87조(원동기ㆍ회전축등의 위험방지)</text>
  </g>
</svg>